<mxfile host="app.diagrams.net" agent="Mozilla/5.0 (Windows NT 10.0; Win64; x64) AppleWebKit/537.36 (KHTML, like Gecko) Chrome/133.0.0.0 Safari/537.36" version="26.0.8">
  <diagram name="페이지-1" id="97c4Iv0PaG5_rQJymqWg">
    <mxGraphModel dx="902" dy="495" grid="1" gridSize="10" guides="1" tooltips="1" connect="1" arrows="1" fold="1" page="1" pageScale="1" pageWidth="827" pageHeight="1169" math="0" shadow="0">
      <root>
        <mxCell id="0" />
        <mxCell id="1" parent="0" />
        <mxCell id="akRjsnNIwy58lEkxjcZI-5" value="" style="rounded=1;whiteSpace=wrap;html=1;" vertex="1" parent="1">
          <mxGeometry x="392" y="105" width="488" height="320" as="geometry" />
        </mxCell>
        <mxCell id="akRjsnNIwy58lEkxjcZI-2" value="사용자 접속&lt;div&gt;8080&lt;/div&gt;" style="fontColor=#0066CC;verticalAlign=top;verticalLabelPosition=bottom;labelPosition=center;align=center;html=1;outlineConnect=0;fillColor=#CCCCCC;strokeColor=#6881B3;gradientColor=none;gradientDirection=north;strokeWidth=2;shape=mxgraph.networks.pc;" vertex="1" parent="1">
          <mxGeometry x="120" y="230" width="100" height="70" as="geometry" />
        </mxCell>
        <mxCell id="akRjsnNIwy58lEkxjcZI-3" value="서버 컴퓨터" style="image;points=[];aspect=fixed;html=1;align=center;shadow=0;dashed=0;image=img/lib/allied_telesis/computer_and_terminals/Server_Desktop.svg;" vertex="1" parent="1">
          <mxGeometry x="414" y="90" width="42.599999999999994" height="54" as="geometry" />
        </mxCell>
        <mxCell id="akRjsnNIwy58lEkxjcZI-7" value="" style="rounded=1;whiteSpace=wrap;html=1;" vertex="1" parent="1">
          <mxGeometry x="501" y="175" width="349" height="210" as="geometry" />
        </mxCell>
        <mxCell id="akRjsnNIwy58lEkxjcZI-6" value="도커 컨테이너" style="shape=image;verticalLabelPosition=bottom;labelBackgroundColor=default;verticalAlign=top;aspect=fixed;imageAspect=0;image=data:image/webp,UklGRsAJAABXRUJQVlA4TLMJAAAvuIAdACo7tratltxMXMxS0z3nnqJmZmZmZmZm5u6CJlH9pVvn+4+YpVwKFVeqXIbQKd91NI6KKjLeISiVU0ppAA6ddkXGjEM7rUj4r6UpUOYlusZKjRNQ5FCagkmQ9RiMM6CQKxKkzqgy41Qq9ETYEY6hlgZhRTc6s/EEmG9kjuUII26agAdQc/ByKMYKDRWZQo+gU7MdK+opGI/Z33LWsTH6BHcYFd3MjJkzZmYJAACWjZSzbdu2bdu2bdu2bdu2bdt++xlGktqm/1btf0BCGYX+T8Ck/w/2gUeRVVx9SOlLTUaFmNnENeTbRe3caWosAX5fGrLQIuAfch4aqvPMTAvAtjj4h17GqnGkASBWX1pOHXIRGqrL9FwU/OkBWNMBzAe+wPeroXDo2e65tHotL8YeC3P49cYV70O+3qI2aTHwpwE/64Lg6zg6ETsMjhs6WBOKO6bgLxf7bi8rLjwOxqkSAmK1wpCznUNGXcRqgWOlcEesGJot8CRWhYh3SsFO0zOGWP1oueNuWmHoxc6tqi7BSBYYVIt3xMpR/kTB6sqtYkMvN340ngQjTT1BM+RWUXAC38+Q0z3x39NoE/++CmG+BECtzDLscmuzrjPTh5w+ZLQAZJPWjqODW6SmsW8np7xa8ShEqoSKhmWVV0JNjSpqDAkhfCjprhpf9tRae8p4jBPL9KViBoC/aK2WrU0Xy27oTWobZywwVNv4Xy+vjrpCET4UlHHRYWRAN/R876KQkBgT/1M11hErR7iEwERi3Cy3sl0bPxqfTIzJU39ji57LKyOr2EMTMg5zKGrgpwvciNudXVETPKwLgr9efkWsnVnu4WHdMaeKjrzbePOFwe9hTQP+ecA39u3aonFdywAFwWo+Hjgc+3r6bi3mvpuBiHjwZVg/fxtEHH61+2yuyzDeaNTjQRsGfb6l3LKMDib6+NiXCxyow293Fn7ZjEnI6Kwc69pp8FnoBltUDhmZAkmsLyMTIhinZkBA7/WFsUXt0o4RrPfoODIQT32PCNYdn3EAXkYm4dQIxqlmLGJebdsxgtET07K1h9ZjfjmIzYhs3d0hGfVwzuxHQ8FIMe0HBqbcKVWwSvD8P2LF0GyBpWBNvVMK/jyGBONZd9wNgz6OHyvtglVGRuVoD61Ve3eHQVigUT2lTPz7AJkylZjcX8Jr51ZVFwtZYHAWxAs/kcl125/hR+OZaOoJGPTpBHCSTUZDlXgPrXFVM8NixWVhizT2/YC2CySNypselqMC2KTHwuo0OhuV1apxfrpiduljpdzzWb7afW6OfjqxE/48DbO/GRZxVHw68OsSEiVUyljc4e1P1B2erEJy6e4LcxvwSDVdp6YjTIKIhBCClrmZ/shClqlZY4Ojw9BYjoRqBh2HW9iWjEhnac98ABRfAmbE3c4qopvZZplmMecU/PVqkvOX9csSOmznrJ5WUJPgBqbNkvwZ5PewkXpSsknpUTYiGQvFHBOqKJkYk93tBwcOOd+5lFQhJTEmPvHSiJUiXEJkIjFullvZro0fjU8mxuSpv8GgT+e0vpQkxsSLVolzBiwf6jImbWTs+DP1BL6f+cHncbCe2Hly4sj7k0NZFwO/g3UB8NXNqYh18+rZHKwJr/w4dpmZC4Pf42CdC3zbIkqk9DhYz1wtyVk2dtiGIqolFlTxxn23ot92MPbbihHXBxEP6L8T0awD9gMRMSaaeczLQcQRt+dx0Yx7BL5eRPzuwdGsAw8CWYO+3A1lbNpERkUJ5zRLTaDfZqt6RTWnnEpoJBvQDrmVdfjNRu05/vu79u/r5NaSbjmftvnRim4lpLCl04+ao58Phv/YKlEu4yHeDbuuS8iU0WgloMsubEhHSWgoYmWBHwfD/8i7k0te3Qb0wtZknCQaVbZZGP4n/HlVEtyCABJcN7wHxpfyzH02Fqpx2NXOqaAKEQWfk+z2oxQS3lHGwQVcPtSsGOrDrvf6qMqBh+HPwKP4tJkfDR/oTy+ZuCWHnBbQt5KeuUZq6TI1J/x6qNZDA5jIp6MycclDe66se19m8ElMmfjnoYoHncRmfDqpakKZ9O+h6u+eVUQVEvIoyY+O3eYmqv99OeXUxaM7FjSx8T8vAJfMq2EKEXkkobB5Y0MAx7yeIpZmxQGHjlJoiBDGlvJIMib4Q+6XgjC5Qmh+MX+OsuJz5MMGAWvlFAke/NHrFVaEsWF5lTHAHYWUWYTkUCDadPcogzcyKp+CQL4qE5fYOWNXqDgbijnZxOUovvjS0F03tyCYn4rii0LC5DvAUSHUJWQSV8xvI5zrublixWVR6xT4cQEJfDs78sSQidl9fiGkCgGT+EHOcgGOoFZLKAcSL0jGZQC77AnL1RzcsJ++09hEWIdd70zcopCSFxIM1kVgJ/x+VeLdAg9OnCe/qf0CGmzXPzYzuHCU89oI7uzsMhrFA697UwS4Sqw/iAd6g4qKEF95KoFH7krR/guQsICeHQQd6XnUbdyPizAP2A+3AdyL8xvYHAR6coVglxABGknIKGBgl0SwN9k3DjDSs0vKbAS8QoifB7AHFzCyKQh58Ofrx8RvQeXVy4f5yQj7zLQAQNnTANTMKrsj8OtXinETIrqjs3lTvyKCP/btFLKwg+Dx6jnV9DLIw/v4M0oqwUJHWWBRPjCPejjIx+glADYDxXi6+Y+LIC8vE8AkdyQw6JGbfXjS34ccfVVmAfkKwUBRnpd1nhzI18GnkYlHTAMAIy5etGjpJyNvD6gY4TscojIyrLiM9OeWprVtMvL4+TkV1XSResgrocAsYp0a17R3Iacv+QcrNk27oQ5vnO4u4ZJuvi1yPKF2Vglgk0NkLGwmKFyRiDvkvQo5M3FLw9I65/XI+fG/7nqlfHI2UXGe5DIonJCI2sjMyCGFraxGWrkMasNDOwyPSpGeiUs8pozDJMNmxlFvd3uyCsuPNn3Vu1A7jv/93vWbZvWtiFWyZ4CFBAcZg1ZcRt4xVSFlnN1rCEGCSAjDa4+LcimEPOQGT99HgoIFERnZpZxfbt3RR97vd43/eVGDbtN9fl7pAyXc0q/zalsOKckipBfzpaBCQKfTNE3daQGM9CHiG26ZXUJzqWgBEyvqkMoG5Do55fkD9mPi74fadvc3vWePTTpPjHYD482tOnuLtta8rT+3RVtv2d7b9PTndxobT7jRoZeMxdXUuOeh706BYk6v1dVna83iSv2iupkzq7i06Rt7gjDoJPIbmhWDcefeliNXmaqQ0Bv5krVByKOuTsOHgmkBmtQ1jrzxUSQoDfivBsLZ/GgpaIeiNokn7mUcB8LHSQgrLk+l3abDAwA=;" vertex="1" parent="1">
          <mxGeometry x="480" y="160" width="77.73" height="50" as="geometry" />
        </mxCell>
        <mxCell id="akRjsnNIwy58lEkxjcZI-8" value="" style="endArrow=classic;html=1;rounded=0;exitX=1;exitY=0.5;exitDx=0;exitDy=0;exitPerimeter=0;entryX=0;entryY=0.5;entryDx=0;entryDy=0;" edge="1" parent="1" source="akRjsnNIwy58lEkxjcZI-2" target="akRjsnNIwy58lEkxjcZI-5">
          <mxGeometry width="50" height="50" relative="1" as="geometry">
            <mxPoint x="400" y="280" as="sourcePoint" />
            <mxPoint x="450" y="230" as="targetPoint" />
          </mxGeometry>
        </mxCell>
        <mxCell id="akRjsnNIwy58lEkxjcZI-9" value="6379" style="shape=image;verticalLabelPosition=bottom;labelBackgroundColor=default;verticalAlign=top;aspect=fixed;imageAspect=0;image=data:image/png,iVBORw0KGgoAAAANSUhEUgAAAPQAAADOCAMAAAA+EN8HAAABGlBMVEX///9jZGakGhHYKiBgYWOkGhCgGA9jZWatHhT4+PjaKiBjY2ZdXmDd3t7o6OmgAAD58fB6DQFub3LY2NjR0dHKjIp3eHmZmZpoaWqiDwCEhIa9YVvRJx3z8/PJJRuxHRS/IhjDIxm4HxbCwsPXIhaEDwW3t7j76+rTAADVGw2pqqvk5OSAgYKgoaLpk5DfKyH10My6u7vHx8f65eTgZWD429nxvLjle3bZNCzaQTlxCQDzyMPivbq4VlHr0M6trq/tqabrnZroiYXdUkzibmjvsa7gYFXZPDHbUEbmgHfzw7vqmZCRFArnjILJY13IFgSpLCWyRkDDc27brKquCQCpMCnSm5nAb2y4UUuwPzjLhoHbrarmxcNPUFSiUP2AAAAW1klEQVR4nO1ch3/ayLZGICFUKAEiSii20dJxbFwJWfea3LznZG+STfv//413ZtRGU2TW9lp2Hufe33s3wIzmm/PNaXPkRGIpS1nKUpaylKUsZSlLWcpSlrKUZyla3At4VClsbeweHZ+cHB/tbmz9/4C+s7u+PdMHSPr6bHt93ot7Rf+6bOyd7uu2nvLEti8v9gpxr+pflMLW7n6fAOzj7p9t9H5Lmmtb53uzPoPYxT04/R1pvntymmKVTKp7dna8E/cqH1IK89N92/bhhbHrBO71rbiX+jCi9Xb3Un3bR3bx4WJ/EPxzkJpd+rD1Qf/0aOf5m7Xd4wvdDtQKet3q7a5fObtg969OzueX5Peg7r3dZ63vAiiZPsj9Pfhi6+gS3LR9NYfY5Kgf/oFu2xdHz9WoaRsnp/sD1mT1d9G3hXfXxw6Rdda82Tqo+xmyfOf4wh7YLGR0qkPs3e3zfgQR2+xk41nhLmys6zYXMZxZ+4L0TNoZhwwuzfW95+O7d473ZgOuS7b7g9mHeUjRhWv4UOC/9cH+9vHGMwjVCudnM12k5Nn1O5axO0fbhEtjxgDup61ubWtdHwjjrjMOYkd67y8EYxDLB/bJ0/XdW7snM9EBRfJhff346Hx3vrGx0yNBaIVC7931ZUSMOkidnO88RZrP1y/2o4LrFE6h7dT+5ezq9OKDQ9mt+e7R+5O9s4uLq31yrP6ahr1/evLUnJh2PqNiat0XCjoIWPDBORpWuMT/wBL61Uqb3TM7NVt/Oqe7t3EczhkxEFDp5Wx2ebmvM5CQ5q6QDX/HSzUbrdVM+sWLzEojRW/YwD6eP4n60sbRWRiy3bevzj4cw+GF0zsH/h5fb8/6NLz+GYy9pgMTPdVYXWtnMsofb968+E+mlWJpvr0+j5vmu3tX4eja7qeONrZChipR6O3MP9Cw+/NE7yrMAF1vIcQZBPoFkj/+s/aa5oKN6mrxabvQ251R1R/bPj0X/fz9LLw7p4X3YUU3Wm0lkyFBv3jx5sVai6Y5OLH+eTynuzc/mdExhb4fZWp29sjV643rQNFA69aKD5kA/eLNmz/Sa8zpTg22Nx4Pqi8be5ccB3UcybveNUVn73+8bqysZUgJQGNt/ye5yhzuGEqoO6ecwJHKn1jZ4EcgjTBiGjRS95skNdLefnzQ67yE0L5t92nL5UirTWNmNJ1pUZrW7f95dNDaOi/etE9vKWfO9/khG5xnIWh8ppkQp1V79figX/4vb/H6h8iV9M5EyRSy3HzQf7RZKwYRmxIL6PwqZy26vRdxqucXQszIqJHqdkC/eZFeY56i6w2I2GICnW63OLD7qQ8bXK/Vm5/1o1IwhCbVWgtAw0luM7RGnm4lk04nk/GATioKwGYVYdtXuxt0RDY/mtE1fhJsIA1H3QA6vdrgBeYrmSSWmEAnk+lke5WjDLt/ub334T2kziDnkDqeXfBLI5Bs9fsD+3I/pMlVUHe73eIoGTEhnVTgPzGCRrAhGeIsz4bMGVTrppFsMQX9YGDvz7av3+/u7M6orxutFBdyW0k7iOMFDWtIY5YvKk76rCMqvNtyr2dPuEVgStBRThISI2gEO5lOr63y/AqNFpSbmp2enUDWSVa06RsOzliw7Mh6KUlPzzGDxkcsrWTYAIKUfh81HKyfv9uhsk4ITUUFYALyGjwiGZZ4QfvgM2KWD44AK3+RhSjnjWUloyj0w54KaGA52HKRps9EZZ7jKMx6o7Gi0Dp2JP81DtCc3Ucsb/G8K+jaPv3Au5ramIlB6w3koviYazdvHxtzIsEFjUiutFe4hxsM2Wz7iJ6mcCW8ydIxr0nb5T0C/pu/+fn4mBMHH2tc0JjmKw0uzXW7b++GWX4tjEyFvAbItZs/46kWHbxSxLAVkQ+DYO16N1jwnN9thHitCHiNAqJPMVDbkd5fH1lj5tIPYLfXWvyLy8H+9nsXdmGbp2jgNYReaf7xwUHBdRz1MVe0lzXh2pBw6nkOy+2Zk3cfczDrqdWIKdNp5Bj1y7O4rjp659eQ2Spi2ODD2FsKB1m/f3HeO6fJjZPLpHBCCPTdEAhC95M4YPeOTu2Be/oYA0soZo2XdePbvCs6z4AEqy20XvQWDk4ev+Dfu/Yzp8aaIl4qHHFRPkJ7NqCNeBYIAcKRTxzV0CMipkDFDCY2Dqmbl35SG4CyKEVEGZzJhWeIvxqKc4Io2EkBy/3hEbxOcjZNb/w3htj7O1MNBVU54ROjLQX/J7MaATmp8JIKp0jCG9jIxJJw/JeJsaPtkMiWg4tq888GztSB1/SDHFrFk2VlVtiiYCoikkIpsbJGlb4iia2keRfzegOfpJhKwGmFk0mC4gQ2WMEwqKwbB9gih8dJ0N1NUuICjdiXWeWvK8PVHpxQBbN8tdUAaa2uZbiBCCq8ofCdPQsQFXhVo/iKCDiBZrwRRCwrojwYDUo699BoAwS/4MU0yKvh0+/sU6yVExQ1cLtl2hEBS0itLGalxTk3KAYifhx3uSid4R1uWCWf5ZEC8XV7lbmjdHlNStygFUxH1oWhOxpkdSKyJmISDJkbqzu+kJol7hKw8/+QC+NbnoXVzaOM/prPmLg17S05vdrguNXUWgYp+1Z9KwLjQPP6aYHGeQGnTOSwE61ciBsMOc9ep/wYjw1tlS+PnlryS8DYlq9wasDYh0VoOa2s8I4y5jX3OUrtSwxtgz9qorKgkuQ2TKDgy9E2U9IFyFxe85IXZ0Q+H09p8K/PNcExVfipha5DBJnkaC7DC71W2+JqqHLzPa4S2c9PNxGlb67rwZePSviHbTZX1luuvWZ3VcFHYbY+j6s5VHv7TeGuzFkdv0xEFllQPMoJa6jQi2KRstZATbEn8bykVzg/228JUmFP3bwyEbLI8F1aUbgGW5hqKqEZ7dN5DJjnqBsWJQGiBNqt+bfYxjcUVYI06GBG9zqHuMRBHS7EJg1iKAwGb4W6/T4CRkIszbu/Zd5y8HgtduZKO1wNPYuhNzQoDEaViVxORlUFfV4LSouYMYxh1BtxV0ODMhE/YgEt8foLyQkEoZebhjAuUF99Cr2hgDuiVI8qfGuiLoWUH7gIhA12Gu2YCoMrFAjc2qaEW4BCuCHU5ESoutssJTAJbGkGeXt4TEwJB7iP1yl6OeIyEap7MSzX3dsRvq/n8Vp3WzJiy7IynJi5JY4fk07WTUJwDLZol9psdt3IuN1VcRYGV9h3aVqRZSI8BIFB9VBBrpx0eM0QCRXevD2KDbSS5BWKcNlSVM9WEMsz7TWQdkZ4FQ0HgeG1E8E+kY7BJK+fyC9QCzBh+PhrXjU0zb6L9ZoupsdeI0snaVPudUTxUUVXjiD0YvfQLSgHI+NuiE3y+4lw53ZEQsLZC8WpvLC8Zs/+k6iRoX6iBvViJNG9u5Bw2ol1vl2M61qHR1tO1IXeMllI20jLdLwDWm6LKkYxvcPBUxVbDsW6ima5wk2+9YgNU2rfDh4bcyLxpRYRN9Kw3asOseDNYqJNYTcs6PlrDJgTW3/ya8C42MkpFDXcigj/apZzE42qiOyP8WdKrfYynvfGe6/yAmWLXmfhdingC+tV2niJM3SwYPnapzjU7MjPrzf85lCMm22CwljorDudZN+DaET0cNRqH7/H+/fp3n6qCbSNP82wRi21mgkN4JRMMa/5HWVKLf/5r9j/Vlnh7aebvGiF3Oq3m3Wn+eVQFM9EtHnX/v4SH7EJ0Xa+fxYfbnTHw6TQ6G96QL6xggqGFOSIzkMlX3v1Nu4/e0HIz6+KmOWoW5ATmDN/9QXHIWIl5z+/jJ3XlPz49K0muNrCFzFrbPWb0f6a4FIWQVb+fvkkeB2WwsGXj3nB1RbuImKvrMK8jtByPv/qx1PTsieFg1cibTuLb/OrwDp63UyUk4DxUr4/iT/cI5Sfnz4mxUaNVxtIua/lCExCLfn396eq5EAO/nqVFLyxlXTbM0L3FE6uLLAG+ZuvP57HH8rtHbys5cVXrbje51huXWdqQN6v0A/ztZcHT8hF3SqfPkewXEm3W05v6IrYKdeSn2PrNrir9H58+ixuSsHRmLgzFHj9+VX80eYdpPDzy59ilieT/DQTFxLzNy9/Pjct+9L7kcnno26cubzO1564i7pNtJ+fvokiVJ7Uajd/x9Ef9tBy8OWrIs66w1rOf/v+lFKK+0jhZ0SNxcOLICefYnx9ZykcfL+Jxg1H+SYcemlN5mBzPnraUvjr1WchbOSifoR4nRuOi1YlS340mlj0R89ADl4qHNetoMTxK/Wu/6hqyiBmJ/ioZKCPTLP8uIu+v/x8+ZGBDdHmV9p6NeumJEmqKku+YnNjGX0iydLosVd9X9HQ2/Ve+onKf7gGxJzUjoRElVR54n23iT8yJEMePvKaH0QOvoI7BuAKkL327SUv9JrIAA+JPHb1qk1MF7Vcbz7qch9K3n75+ue3z98+vvrOr21qFdPBbMhW1v9IckSu5x5zrQ8ova2Dg4OdLUEg4iNUSdDGcwcdLYRafydNRwsHdALOtHvMK8/zTN8mPNAdFZsx+Ogw1rX9a8IDnRubEsL9DP30YsIDnchWUYwmq9M4V/YvChd0YnRYqdeHv6meRaAhOs39njYMiwj0by1L0HEv5rFkCTq2VTRztN1swkd8WwrfZLPZUXPxepbmjMj5IwSg4XfCSf/5U29b1NSqVovdAGKuPLSK1WrV6tKw0TdVHC5Wi5VOdoEVNEub9WJVlQw1GMEHnZ1UpWqlxJ2jC3MYhgFPnZQfJB/RDk1ZlmS54szWLA/HJipXqapshoL/5nRYh29UFS9Xls1iZTOanVq2W0HVMNVB6I3ggi4VTVmSzGKHngTmUNEK3SnM8aR8f3fecSZUzTr+V72KHo5qOaBRs0L8Dn+jussF1cEQyZpEhFDZiiWZ3ggV58+mYU1yiYqpcmJvZzOr4X3MDdEchhQ8WJardWZn/qGMig5mVfo1TWQtjNhJ8lTAVfToVoJvVMOQfMEgJNj5iYDkoE9TNmAulRiCRwwnMqPprruVkhyab1NFG00+F00BlLmfASz5E5oVQCaFperE/9pmVVYlvsj8WnWpTs8ludtpeEeELCJMfMYTR0rrwmMNyQhPgfZOLnbvc7bLwRZaY1mipIqJ1JzIzDfBMNPi1Ko7linxt8kgPr6lcjKsygZ3DkAt1e+h7LI3LbOliGtVhCdXF0NGyOQikw92VZmejRgQnM9I0FNT9FwV7/XddV0m5wqfHWB8XUOYTZphlBLlIqXrTUmgZkoiQWct4ZHC5+QeFfKyQCFo2Sa2YxUzZEhMU62CNSJQqbDrIf9aLsrG/UEPQ3o2qHWqjkYeFDTAMk1sorqef0EKlk152CmXy50hMquG93zJtAjfmS3StEQ1ESnkeG4HDbO4zIPnGshDY28dzCCP78zvskQLekLVqk+62AVPJTU4gpK16YHTNq0qwPYUYAb1PG3s221c6ZOrRWs8toqSzNA1CjRstq8PWSrWK8NJHR4p+4fwHnchjKZVcP5dP8IkjZhsdUKEKlUQbAwEokyf4F1CzwZY2cMSXlyzfDimWcqCVj3QzaJnueEJlamLb3Q4Nlx1Q+T0cPQ262R4u+kv3zAZJ6FNx646jOAubjQmFGpam8Rko81i2KhHaDpHsOKwSc5RdTdVvntcFqK3geJt8qQ0fUVDmMphU3YsuwGc7AVJm0GsqppVKkoth1FHgC75Llquh+cYWc5N9t0VTYGmXW7ZP1jmmPuMnOX5M3cRzbELSzV4VzSwS4Rhj6B32T8kZpeaQ+vULete8XeY3nQjgOVFjLIo2s15bDacMn3X9KMd7rXUiAz7IjXtTzNmKKbdM7EONA2L/bUZ/rLku2NxJFCueizBg313BazhJcegwihNB2c68E5yvfzAHTgkvc0J9aWfBhjitEabyB6/4V8jWTybK3UzIgwlrXfwM5SHPyRugt5MxcozYwbphhkpWW6Gb8G6Ot7i4d+C2KFE+N9IP02sTDarVuWw/FC3AaSm6dQ4a/l6O8yWRFL2Tqk6Irih0kbXFy1w/VGgR1bgBnCQgwKyYrf0ELgJ0FU6WSoXPQRSNUJ8PpcBkK8fcXNUx4/YIuidSByGg1mnsGJKlcP74ybobdGln06VCK9FQhziDnZY7ghx5jeymMoJL+EAb0gHTk5YW6zc92oz0LTMZC2HRvh5fFG9LQGH6uNRzaHQ8jQrC4FOjAxuDQECKLN6vx47AnSF+ko7XCwr9gRABwmWKc52F+45mVoyh2T47t44vFe5iKiR3Rd0J1EKQIvt/eKNNtmKyV0BqvLcpyEnErQqJjWz/ZD95B4aNKQ0v0wOx9En3FxgUdD+shnQiS6ZG+AbAZGgr6qHiRC9hWf6H7VUaROURMsqQzpVWHxeALRY04lN3xtJ1eItYlVQsp3zDJkRkeIHOfpCfWS5zmRcNE32eDMu9kFAl4v+l8WpMDhxJOtUCjw8kH4Lz1zZTy8XbJ5r5kqdoeUQXSVrqXcleBS9s5a3OqO6WJU5WHyE+R6a/xC08xNts06VnMy7ppdRmvZ5aKgyndQKpBtEW5LgyJH5U1RExhGtNByT0RCz4gUlCnTCiyLUhatw5eAyx9zk/2Qo+7ccd+gNxeUif/gd+R0EJxzQ3aC8vSCVmkQKxS/R5ogC8Z0aYke//Kuw6h19ddSZTiTInHaxXa0EAbPM8ylaxeQksxx6A5UrFe41XSeoxN/xPiuS3olN0wjqF4Kr6FxoYbnAzQFqZqMg7jaiQPuabk4kdN9QnLIbN/VLG9JdQUfRO8RFk0u86bBeHxJ1IW1IXNEy8UOQa9wG+tC5vYOQh9m44I7r36G3NoQHeG5LrjNFrxzoA92RE2FCuRhciahm+PI6Ww9fcojp3fR3W62HM6pmEI8bCx45FnQkvYniJfAcMvgSqbpm1y0Akw3Lfs0M3eypcrVS1pz2mmYZ3YiEwiqxpqcBX2S53vGKn1pzcxzcoTJ54cKgI+mNL2mcZeL/a8pWedQEFJqWKx0WIUYycJREjh0FRwKlITjpL5enlSJ7sy8G3SGvRVG9pFzKZkvTikT0h0iywCkuDppLb8ym8DrNYmUCUhmbJuKx+xJCkRjSIUaoKk76kchsJUJM7yn5VEM1kE2rmmQEbhhy8a6N0rfQG52uMGoDMMhhDGoYNMSZVEcODplV+oo5StMjiaGFgaYgP2CuPhYHHcwhOCFBSct9Ni0qHX3BsV6s+hBhvSdUz4p7OUr8+z63lreCTpQtZtdDq4HInHp+riJLbAbMGRrhpyusrsmhhvCiaRHQt9E7gTyNKQmKKKjZzDCZIKSJ69+iId43kW/gNfGdrLBbR75PbXAR0Og1WIMPG2yM/KvD8kzrop4Bds1OEdfr1CFBezeFQQiUM02DbdmQHO9pcS/KFpRc0W2hMKLsgja0ZLqnyF1kdcy3oeW6JBuU8TIM3OhQ8VQe5G5uZR80SJ6UoSXRFTKn5i+JYuLFRPN6FuVipF3ITopka6jk1DBMqb4pioqah2PZDHYHvyhswIBO0zWNANrf53IRXQrDnoSzueyhJctSSNvwUHXM9Cf/Q8k5/Yy3nhEt20WwvSs9x3dVplHR72ha/+VHJAYxoPvLKWgGF/1OnyT4Y+rGQYM5UOuxy2pwzvKv+vT+LzLBvqOwaYEqm9axilW3JipJRWui3eY0tBLq9nZGqFWrknMHTPAsocJEBTWN8t601JoVy5tDqhbro4e5tC1vdhftodZG5elmt9uZlrOLMgxGdNCIEkmK3LTboVzOqMN8FPy8hObYnJZ/25fVlrKUpSxlKUtZylKWspSlLOWJy/8BtZmM7gnHEKQAAAAASUVORK5CYII=;" vertex="1" parent="1">
          <mxGeometry x="720" y="180" width="74" height="62.48" as="geometry" />
        </mxCell>
        <mxCell id="akRjsnNIwy58lEkxjcZI-12" value="5432" style="shape=image;verticalLabelPosition=bottom;labelBackgroundColor=default;verticalAlign=top;aspect=fixed;imageAspect=0;image=data:image/png,iVBORw0KGgoAAAANSUhEUgAAAOEAAADhCAMAAAAJbSJIAAAAgVBMVEX///8zZ5EwZZAqYo4tZI8fXYskX4wdXIr09/kXWokrYo7r8fU3bJVEdZv4+vxHdJrL1+Hm7PGMpr3c5Ourvc5egqLT3ea5yNaetMeyw9JsjqzE0d16mLOTq8Fxka5UfaBZgaOGobqasMUAT4JukK5liKiRp71PeJ15lrIAT4MAVYYe0UyyAAAeJ0lEQVR4nO09h3arurIBFWooxgb3tjdxbv7/A59GI9EMWA4kOXlrz113newEY400venl5R/8g3/wD/7BP/gV4ObF+swZb0L4tgt+el1PQuQGaRoIcKOo/q2bL4+x53FO7Q4Q5r3ul5n7Q8tN82S5PiwEHNbLTZJno/st0NiXt9DmnBA7DOPTuTwuxKcEdqEncLMGwCbcid+Lbz/LfF2GlqQpAiD+yzixwtvxukt7Hs/WZ0s8CnjYlg3Y2DallIhPMU6b+MBvJfh+jbXtM1oW34edWxyZx/27XYflU848+r5JGzT4Eqxjr4VG71GJT4otik/lcX8RZHHZl6dY7CHRH/QZO3zPQeYXyho0Jc+C2i10fe7F+0KdZbZnXP8VTk0BaewQJYzF4vSzIGp/V5AVhzLU2yMI/NJHIDPjV4qdRswIczyPvp5O5/Pp9Bp6ngN0WHEPo6dDkuZ7Tmz1C4+c3hdXwbLFZnm4lK/MY4ISiOOd3oo0GvxKN1+fPNwkm5PD10qdtGRUcT+JL5ukRTVpUqz3J1qhKekO8RPohZd7wZ/uBDdfkmHk6ieXMced5XQzHz53sPYockS8H9ZT2W6xshzSIFvK4rds8pfne8rl65zzV5FqumJyvc5292jXg+RwqrjHOxUGp6Q/mWb5riiKXZ6l3U1MF4QgNy+fXrwJ7KgPb/dKw+NIl+cPwWY83hk+v7m+n2OhLx2hgxhzOA3j1aVofVtwQSpi+2dXbwBLT3L6Le/8PoqEkRL1H5K7Ka116zeCVzdLAZsiv5MtG8sTMrohpQUnC23Pt8sGVWYnSUj8NLvAWTsSwcZ6o7Q47FexJQSq55HwVO4PyyQd/mJ3tzgTIW/R8hRymN/e1y1ZFa0t3qsovdWyfm4tBRmJZ2bGJRN769v1ASaXG1gxWjGK/faFZeOwcHXZ9JHx7hg6pK31hSbljrW6Nh4XVNhrvQkZc6key2LgRt+aLrwakMAXk1hvpLuOORkwJAVhkfB905YSm5j5/Y+LxfN4XT+dx7z/xYTv9VNRCUdtky7DTIAU3kg06UdrZ2AVFfj847U+myR0Rp+3ufe3Xu2B9T9sk4+rZt0Lkx9LZsNwJciLxgrBZGiXO2fjKRnqDlBe5+myWm4SkoGnajmHco/OdYpL2DGuOPvqPLKhERyls7K4R3r04ci3WnYE56GP0ErUbWDbbDKPKS5p1FEncmRG67W40lg5M9sQC0j7qr/y4gw8Y7NSkdIGiJnG5rbECGwF0fCF+tnsQCz/hs/vhpbav/yKCq8DzCjEgaWeWcKr+RyqPxMkb6u92hsiaFGkuGSIo4Y+xrQ9thxE0WbKFT4AimwGv7ik1XvWnuFK1fPpkEoZBJsdNYrDp8+UdwHEZYeTEczFsVGkucxIiAoguMzIMubBGniopMfwdtoebqAbivWwyVb4hVRi5mS6YI6LPD5JowiVsbIYFmoMeXHDZzjEAIQyHuHGUIxaSqQXpkzbAaqNw+PgC2yKexiL1TkTlSKgxZEQQlOmCqVYco2fv1s/x0VHtyFTz6Jn+cRa7AFZTMOwFF9iyw3bmAp+tSGXTx4hoOggoQbDbOFIaZM6FYV9FlzB7hTlRmx8hFInp6ZytxdFC7XNbvAldCUfgC0IJxk2OyBSuV2Z8REe5Cc/J2YqBG5ouhyGeN9GaQYkxie5UUKS2qi9D4ZEZxP5eGYqlgaA4BlJFHrBk5b6gkwVNYI0FZ2bqgq/1FszDRgKkHSIN5CyQNTwKWZNJIwSIk2/1FQXojkTTMRPgPK+hmwblGegEfl6cP2PAdwKfNXOlOo8XNfnBakG20IJcu6nU3RECqZ/+iRkYqFMEvybIdXhiZubP2Ov2uIu99vg5A3+mDgTFWIutsiTomo7qHzbwCRtZVNURQXK/HzrpQdykQt09E+fhES8/AN+iAy1oU2klL9OJ1J4maWMoxEMvYlnCKYlld9i6AcpSfr6WYOtDUq19jL1TBgKYUxP8IOphYJcH3zMgqBW61Hf3xBDyYeHCRgKYey/6zeZALo1n/Uq7oC/6Y2+x1DiJW2uKdpCvKB+kwmgjbifqu5rwEPsEaeIV8P1+TSG6k2GIUFJ0uZG+kNQh9hjIaElM9mmAQzlDhlqcGSO1J4NQ4tK2dxj9nu5Rp0Zpu8GMdw8gSE+nM/FhlbFZKs7C4KhbwFhsim+BWBYUYPJepIntuMRYJUHe+l/JXqhofAMyLdiKD2nBtdg+c/TJpxNGIeqqVVZniQN3sUllQcMSmySB/wkhjaRn1IkRbgXno+Xy2Vfht4zkVPqxItdp5bt1vk82r8BRDHiCQgChuwZPpSRPRecSuqQ/abKCLv5hRtrEOfUU39y7NAB8ieYpbSciGHthz0GZf8Qm5NjN7fn7s1UKuW99TKLzgY58v2gDqfF2p7U+Bizyv6E1z7WMLJ0aNwvNw5tDFVoBTh+kjqEPcJVm9mluJ35eqBcYWeSFagLEKIgcKsy1I6ZpJjvLGiXTwrTCAGDYRoz36LHQgzyJK8WvX5ICTpx/JIsTsJpCgVg0cXfNh9S6R1Lv4pNqjsBwpIKKerKsn4M2yyUrUvuOY7jEV1SeH6gN5Tz9bKzPzyBHpR52Rgs7Kh83EsIQdivUxCU7OfJPTLy8Zv2U3qAolIhUz3PY56DzJI8OEQVGFx8hGvQFqn0pCVPn9o7jD4MSPhJHj6uCKMYXVnWv8BKgOZHLpmOH5M0zYoLw/DmS6+7XoE6j40XaspjmuM6NISWzn6yoMFIlDwYI4WoMUxLVUFc6aogxizyYXSj1HnQ6lyEvkMN1IlkYGJGhla8abVRIGDQbc9NXGCF4dXTTEPf9ZvSP3KjxvP6qHuFt22rM7xRLcvb7opiQ2+G9GGolVw6XExfAx73ptYsNq8qSD6kJglGtQ7uEIROYuCz/Ey0L99JEng1G04tVSh9pS6Mgm3szoZVBjJkOw2cY2R5UOOU3FaxLFBF+Vy0McSDA0uu3wJ6AmphVho4CGo1TZYlZ1h1uuWWIxnxfYwRMW2IJqitiAbPtR2eVHwKsoxNLVGUClGSxLiMUBhqPmoAdcJzCIyJmmDUSUHia5sv9bnWgLQC32OfJiIomRmrHXYGwrQWAE1Qp4FOyqiBi3zczuN58ujbFIRZfFBgU1PcL5ISkCYyEwxRKvTLS1xMOiZMcRPaFREy09OWAsrykSbb9PJEYWepqgADKkUkBpIW+Jr+EL3+vNyhvPV5dDlbR6iiQXIjphdDS1vGVNSoUNvAMdnyhWNZKVRMURNDlORB85UqywzCx5/k/SKA6+s9lhEKw/0IhjaX+9111luPxHebgOqmpUYVTYEdN1lXvCDJoQAxCOz7EsOhmgb+2MD1JLU0VQOeUss9VZUTQKQfM1TsA9+g7RU9xhDPcCh5aBBqRDXQ3CJ0BFtniNIVJK46zYkg2E/Zfo/zuohhPoAh6oJRdXGfQVYYNj5E0Na9zVK1BwBU5VX65wGGVV62D/rsgbs3yO9snLOSwI3NRT9MnjObpQha5q8K/dMDDA9jOJiwM9pojUoOdBkbOkZJI2m8budAUEab8WyCh7EaxGFoJ8bxV88gmdYC1+bw70YQRcWC4JTnqA8GgPgu+t4PGRHpcChqiPbAA5GM3n3jIVlG0AjTYBgRd3Gmptkt+Cjyex/WOSE1D0WPkRIe0LrScHXlJvrw1aH6WEYIxWCTXUMNwPZcisGHIV1nVB8YYahyrPU7nCpPKAENUZmomRYobUBWlTs8LExH/26o1ARf8ig/gLtUC0/UMdqgUnIGvmJaRqYFnnH2elyrYMDnUUhLCcjKhWrnTfBf0tWYlL5vgzS5u4nBfgzl838HBFJdTTj+EkkIVaVgWwITac9APMtms7TLSFhyI3vE0uGTofA4Wm0PYwXqEBdqJ5QliN+sSoiknJkWCW6BZET5Pnc8P6NCCoOdZz3xiD7AvHxAmghjqE+F7qQ9M60yuA1RWJWLj1dz+fdWchN/qbsN0gPK8FSHqNwn/AJUFbBJc3iGNUBoyKu8zhEM5dKGnCdsvDFI8ahcTKTGKGDuS5ptGBOTlDSpxOQOiqqcfTzyXRfT9f5V8lBgEFlWqhxlEioFKT0bTRYzqgoA0IMqwDCaWSGjDjAqOqN2PeREbElpYIjJxblVhQRhkNqY7RmVE7gLQ3yIjpFRDkuJU9m7ihgClapzk81OM6oKCaB+1RGM6YvRoJyS7uPpNQ0fKCiBZxGvIGwf4ZSCyz5IqpKH8Rp81If9iV60Lw2rOJWkBAGg6jts3SJYOFXd6YwQVXs53OEBgFZbb9G7svuG7J0uqEgvZNf+wg8Z1y2C8ghn1PYKYGFYPjbaoociPOljRJTFgdkRVgQv5LIuDVK/gSPUPbhzQlE1bow6+kjJvYk49GwNy+MEqMR/SbVHpk4V5Cufnqy4A9nCdpY/jpVTqKBcT/uAyqAYVXTgq5ApcubI/144JiKljzFTF34bQF+gUTjq36FTmt5XBn2kuF5TBHWD4csK9fANpSsK0rcvQBAdfUmmo9a3skYW3V1QsvGp+m/ZBfGyw9jhB8oWSeV8Zl2IkLKKTMdNZ6w875pmKkj4VJ1p02w5oHpwZQHLlNL8EYBgF1rfxRipKVXc6f1UTPVc7bAd1mflIVYL2bv9RePMGmQ6dhK6+GLdUguqu+zJEv76EDcowWR+Zp5Ifg+A9a1E5Sg36RqhRQNFlfAbcjqGQZ+WGoUB4RQ6ra95DCSZSoGWjBKbp/b4WuOjSk5GyzD6QJsuG2nWYCXBXHHuHqjLccdLa3QzvbASNEZIbsGzCOokzEuO4uvWPsIouBvoNg1cbmvmH/f0daf5S3DEEYuKSA3bbtqvakgV+a3Syw92y8tJjph0Zh35CbYpxr7HS7csWrUH5HvLIZSg0W1SctQFUkdjVO58cTxZnqPncNm+N1A1/RkA71yFgh54CH5dTRfsDttXKYLTT3V71Y6gagcmtPPddMZ5WPIL5PGMS0Xb6/vO5QdzzCcqaSD/U+9qz6ywLRyESq26I3oGONSd4aPm96C4C4rTc7xo86OmwdLhMAfWpjD4jpHwtF8XxXIlDfH3ge97GiDurFTimF3DlFXVO8B5Y1LEqcEPG8SQX99Xtzg+bfeHTV61qiz5rB6/VIl1sGQAQaXE1h/hpUcI5Oade3bcXXkU3Y2gPNI5dWTBWzHLXuConeU8NcLDS5F3lpmYjmKyjfKDtW8+C8DJqbjzwLK0eN8xNTyYe390UEVtv+kIEZ3idZNixNaWGE4ZqtAGODkVy+w/RKpmK+a1atA4J7dYlWgZYqhmQS1DxwmXdzi6ijRkX9B8xngEo/xU0qeP1mycRtQM5mj1n3OfOsoHMtKMKpGzlkMXubVdJnLke5Alu+Xib7jV32RVxt0sABSGGaa+8T/adQrCunJC7YesBLO9J2KmGH6sRBrlzIH2G8dhjDtVxR6oraYjORmaW3ZvhSnrwj3pQ6IszBXOcqGqLsfIi1Ipgh61RFk1yVROA5uRDV9UvZyaT9eNK1aj8JDRCHNWmn9WiLMq4TKSpgOJLJs7Wy1jI4ngzE6/jOqrMFhHKHpqK/ccRCgTiqL6Zj1uEWfxuUaiBpNxxUdjcrIvKPW2rqLBrrSQFOnPB1KGqpaWVo2UnkJ5cAi/XVoXJGh/31aVJEYxReVUXm4WZ57DiB3eymtzTvqO+BLB2Ue0A0cpVRU0RlNzVUW38cils6nVMFJlzz2oBtAv1IZKmmV5nmWdKdOBarr9grCNlKFKpuQVR5FTpP7a9deSytrW9pyZpHHGVEC0ttC59r4iqFGS2vnOLDXOX41XE0qhZaQFm5v2mGxHl6GZYegNe7bpm5qwT+adeF29Xw4MV/1MwcrxKXH+4gkGTaIJkqu+tMECfVbJdEMM+yVklC5Xnrp/gh2/KnQqByfr/E9xPB1VXUR08tWMiqy4nIlT30tiO7ea6Az1Ib6oQRLCnFnvb9WlLdz6urAb0KnF7vWs+L3CsAj/yCkKwmUFIe+9NgWeEYaqpNWy4nIvYFveQqFh6znpxFt84VUekbTKvG4Wr2ya+cFmD2siVCxx3eYWIwxVZNmzpFdP2ve82JxcvvbKGTRnnBYbBCWWvzQUoSsEfSummchNMdIWqjml51HKndv1y6+bwbA3iWtOKNQgdRoOfrl78UpzDPuKwqlwN63jOvuS9FoH0MO1ebzOXbjqJq4mOVEyoIOXlFNzDOuSceFVMLjTg3N6PhRfoh56Ice4pTCE4XoLVYKGuo+9bu4d1mXINHMZYViVBtMy2e12SZJ/+9Vk6alrXvI4UbzI7eO6iodFQbbZW/KMMUXjmviHqPD3ZPb6rmfg6jWcdZt+vLsv0VmtXogDGt7Oq9XpFsN1ZOq3Z4mhgeWthj0LB3fiRIFpEOwp3FJiw3UwRHlt6yrjZFt3t3lp/9AAQ7xrwvrSdJoJuMUFwrTn6goyQb0X2nfHmnAZbT0fweAM1dAEoZXmLST9FERu97K05dljrelXwqoJFzth4WA1rMEZqtpn/sDH+DkIircz8YTjyuTdbOUaSLhq0zLAUMUw2H8WQwlRmoGQr+51qjF8HKepe8Sc79OAkyG2VWO2wbyieqCK94suIoXQJ/zXBENedTt9/Oyin4KbjXFs93GGzUYDHuaO8J9d9FNwotg2NFpypKDqvpnhDpLvA2GgSJIbyls1zxDnDIRztWt/E5QUG83HWxokYOkzFDfQ44O3/pdgSzG8ZDDMp/YOyZcUk34RvPtK9D+uFFbttlOHBH83CNmP9Zv3A2W7gIYMJEZ+2PB+Dq5ceX1jwz8QcCf2ky+v+GbYcHU2j1sQsRkVztr5qUvHPwMw7hXHJD3CEJVgFNrz5ne/HKA9xGxkr5psWUV2fgsEnulAWzXmr+rO/TXgqRLchyNEsBBB3rDylVdUzw/VGN5HwTYUucCuc/YzfwOcKFqZD2cwYhYdZv98Xd36l8Ce2Goc9jiCSryQX8eGUobK03kwBgYLgyErw38+0PYUwOxsE6MGG/FkzuI36fsXeSrM4GoBdempMNRnGpP0fRDdbNR04zMYsfsOLpf5VWa3hAtRQmTMf7JZNSfpVxmlEsSqsT6zGEmwqRoIwauzjUn6PggqI2XYzafYyZdV8xp/F2yp6lofrDHVWXLhG/4uq1uB0ABqcv7A7dAkRDMNRozM2AzzjcBt1U/qxj3NttTT94oL15D8pihbDQuiewfc7q3yNuEnbcLIy85/nSCVAKYYRUJ0907l69tQJLOoBMuFVSMHfh9sfctXlZov+dFzoD+Le7xsFskAj85yLfyPADRP1V2FUbK8XpftIpkUClLJ+dtXNhvAVc+6dagHojUU5eiC3F8JUQy9qKv+2jB3GUOCmJ9+p5RRIJtLfKunGytRhUXer+VBBYlEg9vr5jmmm3cuG6Ptr6yM/S5IsCaOe/FeiJliszwcQ4+rPl9y+dUUqiBT2t6WzbwcCqvQpuF88eWVo98D0cLrRvahVfF8X9T4eyFYhAyu25H/o5zR22X3i+pKjCBKDttbSDgJb8dr8l3E6QaZgPTb1G3kBkHQrYtrrygvlssi6TneICmWm13+xFqj91ebSNYnJF78N9zrvCQMVsR43L6uLlreoC5a/J+UrZhq4FEydE+Za1EL2iPk/4l3+nkc3b0nq1dB0tpec5DghnLxS+oDI/verbHUgFl0EEMoAvHsMA45dIP47DNpnyifr6ET+gttzk7lKnYYbeRo3C1cXelYq+02dqBs1Wn0IvHhu+YAwziFpn43X4D5+4kG4n3I/zz9oSHYAoJr4MAoKMq6NioCbeqUeJVnenAE6Xl1U9U4hiraDP+AAW3PZ5hDOl+lHQwnbPSn1Gx4IgLz2rILoO246rN8iKFb/8v+RMg5tufD8OhbvYwCNSikKSQieXmZHvtjjCHkFp6PyM6Jodhir4eIMna39VD/RpTL+QSGKf9E1dyMGLrV9cJtOBI9EaAGed2PmgVgjqHYGPu12sN0eSnP27fuhIpsfTyXlyWO/U2SPITUGEBNRcJyOf+9yvFO4vf4uzxJ5G1s1/KsGS3aiefKRf0FUMHYc4bQ+Haf+obg4+IzGN7UN2RHhxOfUuLQZtdfWnqcUh9MZvHb5I8jA9kw+8A7q0d2N49QSrlXZi+bD+d/+MKb9/EOCVPuf6itWIYOgVc5YSX4BT301Cmse0lLsJSKwz5JpSv9ViKMY9kybvGw2kBoAvYFPvDXF5B9vnTxhB721SzOlwuDmZmMcUpoJmgJa51eSkrfXw7g62NNQrRlNmXQP9VoF5bjM+7MVSHje4r56pN9AsMN01l0sRSbnzd5liyIb1Etx6LYt3i5y/LinUHGLz+XW0BwWwrAT0JHOY+vu93yxvz4QNT1oS9/BYZQP0RU2ZpQ7azcBVG6FOrGWehVg3HVSXNHtL96/1WLH3MMoQgUa7SKD8vWYjsVuoeqKQ2FUxUSBHqr25JmU92GJX6GIV26aPud0mNJySHDmUEXXvXcujdaYbCEsSZe2bIeZUqqZ/HvviozMsfwnav5F6AY67kFAXAHbvKe2HfzfFsYgqyo7Sl5wQmt1iOw1ceTcbsefZxyu0pYyMktvnNqTKeB1s6+ym9BH2qsyCMM1c/5WTyIUmDNWul0WKi6ktC/v5m+haH4ZHO+vxzyhj/KW26rYBv8q36R+Jet/5XYEFuk3LpqoQo51r4am7XW3o/sUmu/Xi6Xe7hz0sb5HjDpv1XjWYm4d3JfDNLCUAgF1vik7Kytcap0XUBb9zQKHJz6teuQgfjiVP1KbDDtu7YSMHw3wtCX/iEk02PUXSlrWKsAV65qt2RbfgfFJobdT8o7AyoM61qgndPaCPGx5sCZaFfKfj81UlNg2Hsxp/kZglKCfuLXpVpbwTrl8nBbrxrm78PAjxaOTQzFyluflCNyKwxrk1Nsmb3cVbCk3Uqo7F3qleresD4+fCP67oUHGIaH47Y8Hja1PIbNaQ2xB9WDTkdKoVuAhw311MQQDNtmy34Hw2pnJFOyCnjznmQFMAENhwfmA7J066uBFaaSpgaxw+1xaPKGSRRu7hZsAJvVo/GaGIq9ac03amNYN93JG7NacB/Vz/REL5ix1acPLd0q9YTGH8LQrc7wBTINcMG4Ekr3GLZOX7bK9GEoiB3kWwPuXW/hMmGXCQi6e5smq7b9eQy7tAbFoc1epODKqynRHSplbfdr6AyFXrUfRkpzfcm6sOV6hKnYAKWYnscQ5EWr6qPgnVtswAjQ4yebGFb3oitIW7K0xlCsjj2MeokPo2CG0ui7cYPSlkPGfh5DIHza3GKhuDtzCiE3r05VYFjJAaDKpp8ja5/xxxaGYg8fzyPLqqMTWtZfdf4K4li9+nkMoemhiRFMvf7oGGvC7FWzsV6bfvmRtOS+vBkDf2xhKDR+W+P2waaKOCSe1d1imGGoxyl9AkO4UKJxGcGxp1YprsjvTBuSLmn1KWOBPv7cwlAOTnh0qwoQh8LhvdsrlArLmWvN+wkMX07CY6p+f2D6Jp86+CUEmXZKL6RJcWIt1aiqtUeHMISedO+eTs9FdbBuKfZVu+PRjbSe38HF2lXe/zMYpkxwYryDV6RHVrsLxxUmi3LYX6W/hVNp002gJm1HoS+05Xm9261PjB3CfkkDbpIgvPMOI6PZulR4O+Fllwau+A1Mhqlv4A5i0I7xMnUjNy1KQWPsXK07AOdj3YSaAYYwFBYFXIYUb49nIux+NcRfCBLCwtVxexNbqIe1yTYXm1uh2oXgVU1f4b7Q4lYlkDoYCh9bbCKzbqfTLWQch+YKZWMTxsPQkmZOc2yZW4JzzHkcx1QY5qQZ8A/kJMUaWKOQ2hXuey+Gwu+FuLJPqe3zyn5JPjjFwRfEqdVe4chBeHqWsPDbOKHCnKebuh8fSoJoO6C+CyHJLV9H+Qfe0xdWcxkEpre2HVOEjMoUCzhXi6aoDzzahsbQc7dcnbcDMm1XhszzWFg2QkPZ4mZxzyPxsame8pXtONyqzA63uBz3B6BxofE1ux5Oq07iJ9qUoYwExeeD/ktyOcvf2fH+3sgpjjHxmOx7bw0bDE6rNpS9h9YDAYz265oekG1Mu29IxS/73pqS8fYJmCp1NzswHU5nRmm2e4s9blPikNN+2R1Y/P2w41/Q8hrl19ATcgI8vh8v7D/SsUmBEyC7nmxO7B9vAsuJ/XVdTEGxj+e5pPtJaAiITGhD5yv7st0f6XJj4RW/N1hLw+Mn1vClkDg2d9jr+RTCuDPer2x/NRQg5UCPQ4iL7f//IShU4PokRyl5Xrj4Xc2gz0CW7HY/r4z/wT/478P/ARSirUGcnZTOAAAAAElFTkSuQmCC;" vertex="1" parent="1">
          <mxGeometry x="714.5" y="270" width="85" height="85" as="geometry" />
        </mxCell>
        <mxCell id="akRjsnNIwy58lEkxjcZI-13" value="8080" style="shape=image;verticalLabelPosition=bottom;labelBackgroundColor=default;verticalAlign=top;aspect=fixed;imageAspect=0;image=data:image/png,iVBORw0KGgoAAAANSUhEUgAAAbkAAAByCAMAAAD50l/ZAAAAilBMVEX///9tsz9rsjxosTdmsDNpsTlhripkry+izYr4+/VnsDSCvVy22KF7ulTo8+H2+vKv1Jt6uk/a68/v9utztkfs9eZytkXU6Mjg7te+3K3G4LaayX6fzISEvmDP5cLc7NKq0ZOOw27B3bCOw22UxnfL47y62qddrCGbyoCCvV+q0JWo0ZCizoiLw2jJyX1LAAAVVUlEQVR4nO1dWWOqvBaVjAUFREARZ0XtOer//3uXSUhIQrDlVP1u10MfLEOSleydPWQzGDyEcLM+XZJVYGSY2oflOJ6Ejz3iFz8NNxrtAgNSC2JgFAAAW9Qygt1o4z67eb+Qwz8mNkQVZTwARsherP1nN/IXTZiTzylVsFazR6fJ8XflvRLCkU1gO20VecblV+m9CpwFsbrQVpIHycJ5dpN/kSL8JLAzbQUgSSLJk8wfb/v/M8yx8ShvOXdwIchMc/yMDvSHzWW32L/NFmxto+5ykucOzBvPioN3XnTODlkYoqDZq9eEvyBf5C0FoAm/7DwiE6FvAmdaiB5A3oG645cEJbPsjJh9GrW2z+rJ97GqhoK8/tb5OwvOKCdoUgtID+M/bysuN6jqlPXx7MZoEHrWN3nLAIO7gXAiNwO9rbic18yB4WvPv5mBeyDOMDBY588LDWLe6NvuLkf1NAbBS3uJ1uC7krLqKMxV+oJsB0fy59n9+ir2zJqzX3nNzTQeyoeoQ+lKi6lnDhzDeFfnCqPn4PXZjWnBjPZHXAo68jHJhOYfEmvf/aLwKuVx3jy7LWrMzn3ylgIZdJs9eE9uT+7al+GAkjrywrp6QnsmLpUwhW5wKH5lHdEKZ0gwxsgaPbshakRGr6IyA5iW1uuBrp/buW/APC4OyfiFzXDf7sccYImr7LgteXUz9o2x+57HS0acVS20iEyf2bf/NC5IT8WDxKFj9XQTnF9Y3Lw1ZqR34iCr2q5v4Wp/Q/i9uU7uwGDGvmBOFs/q238byz68zBxxAe818c/Tt7ULXhmzvi05a9iM/gPywi6It4U57FdWAiqarRfywqbs22LU75JDniQcF5Pk8YZFx3g+3o7i9Ua5M/WP+6Mkuydax6fteB7P2l3dmzieNX5yZvv9kX/dZj1pivr0J+Fh4ewY7+PjLOoaDXKO88til1xOx0hQJX78d3wUf424loW9Ok/wWWp0h8h7LH3KOa2whRCyoJX/GY4m4gPcRXoFony+Wbi3s3tQ/gd5W2VYd2LT9AKD2fU646mF0h/psh60uZFehLcsHSOQPX7EDuzmAvLXZS22vA+9aoi20+whGGOY3XLjcsTNDyv9jeITd0vs2clqyjR32aMNDuhN0WhIHwmMTxID8T4dgGCwm/HT2Q2KnZUV1M+OFgaXtgYsaMtz7uYWLpp83/Y6n/h+qzUs32Tu8vgJsIJqdpir4ic6vP9kxivI5hSn7xzGbTsyNx5iPgkZo+mobuXQKvv8l7kpWWQXmNvd/clOf8SlnRFX+P295KT4j4jwE8lccQBTm3MgJvctMR6Wv/hXIGbTA+qNxGZFVSyyiEG5H2zilPVZXFV5KOD9FYPr/SdrV47gkArNBXSlXnexJwmnAeTdY2HjSn3RWphfLoN4NLpEg/1d71z7Yg7QactEe0DRrQOlkQIQvlRTM6rdB6VHe6K4E1C7qc8GSdXvPNrtNDJMz3lXwtq1RErPglPvClCu7Mq12wRGiqnq3BQpWunqz/tm1i/FVXgssgcDez+ZI2fwWehYtyfvCaTTfRsdE9o1Ayduzz2zKq/auKYJ5kvkdFbeCc7NvS2zLSPOIGoOfzEXYjEmPmJ+ylT6VTmAZCvr3hGrXfuFTJ4wTzzfb/tI25OJ5+t2EBVrYNSDEQ4gOl80aswPOqY0HLXx3XNJ3UctLUA6IwefrZOwseZNhjm69oVdGj02RgffipnHyCiwSpduy8acSqgbt87L3Ow9spPqrh2SdPSGE9efpgwGeQe8b24sAYZkupzr15NNBIElw0ZvogDPFZjz0p2WxmlucdSxzKE4EVRGoWGYZX3P2rty82XR+lIkiKGtppEAb9iFnokDhjk7AJkIzplbf9mWAyAljRJvd+lmwCSdcvfcLmHCcg7wzF20woOjzmU6jheSd5gdmBtqhg/QxtDoTWcQhEcZc8tUuQ2jMIu5uPlmafFAPDXnKrN3aAoc2KvbZR11ttL25NDhqjE3J1MxTKmFm/5wNBeYs7t48CzG7c0yZwTCpbBguZ05Iwg0Egsuud7FHRoJDydmDlbMxalOtZ3BKW3FPFt3/rSjsITIAtPAO1zH8/1xPZtNovBBF/KEBPqLfHYosGV/zNfr8WKYvp6dYeVO8kMxhjizcFP7VrQPSB0ydFsHEQd+F+ZYAGm8hbDK3REvgXkrMds/4MnuN1ObNTtqc1uHubI4dpgEANIzve7Xzve8/RE19OuTnZT0UFlE5iYekmrXDsoHfcjGEKDzbb+eRZvZ8QOTpkShlTnYwhyAxCsHrCNzmBIUBFMinvGFrEfp1mgOoPS63jh+GE32t7NU2tfMO+diD+hMc12R6IRl2gvj0kv6j29boq+viVXdnqbb2p/b5bbsXOp9GXPUYzdLk0PD5IWVqlMxhxHxrtXSlDAnupwgWZSezs2oaWODaa3pTo1XUrsWAWmDxlDSH2bNhvZtH8eHwivs25qqC8j46O00x4EcdZeY9eYc78R/H4fEwsi6e+5E5gBsOktmNj+VK6eEnDlMk5iVDB2YA/ST9escA34x1F6QhmYC1qnRVn8htomTtpvReFzO/k3rfgxQ+9TjKdsOm8uo7jWS0WxOtotRNU4Cc1gSpfATbs9TOSVkzAHaPOeuZw4YjYaGK+6COql9yw02nkq8Y3NBNROFEXxqsy6gMf/u6RXutUskWUY8ZnWnOxx0bTKHbdk8Mz+5TqJyDfgic3gqJNFrmQNAUAE+ZyJXU8Xk7msmDZQQ9h0q5nZqNZfOv2+vN5d77Yh6uhtm9UBRvd3eYA4Eiijege0lLm0TkTk4FEdJyxyVuPwc1pdTtWrOTiAwVUzMeaNZKubU5gjGWqWkB7/HWFOqu4FhDm61j28wZ6mc8yarYEDphBOYw7ZEwsiYk80DHpxTAJZjzyUeqHO+P3kFpmAuVPFmWH96OOZn8jHWiJwVF1aYsHEW7U6UZ06SQnHHjB2NcpU0mQNTmYiRMPfJMieX6Q5nfBYTKmQXIvxUttXl3ZEK5iaqAI+l1UhdMOfVRki0h+QddnFMdfKSY671YCJr/JSKp8mcPMNJwxwYym7i11e5vDhhiVsG4sipZQVzR8UGxVJPiQdgNsbSJ/r8L06uwWU70xxztE26T9iOwqI1PHPwIr1Rw5zoUS7ABmDKa1j1CNtOWZgrdtEpmBvLjQKrn6zWUSOU6hP9roPfMkF4beOaZQ4YbY/lRqM4p8IzBxTpoBrmoGKfwTpRUS7FTdZyJq2KgFudCubk7mari2dYjxA1ePKB/ixWc1cMyXCkNA9Y5jQ1V/6yiyAX4jxzSJE8r5OWCgkdMTQVJ+848xG2ttVn15OCuZtsa5kHKXtA0rQBXI/qDx0LqZ/AIsZYvvJY5prTpIENsz8ohpJj7h7xE9DOHFD50ENm0168jsm8MHC7TDNZ96aCOanvS2VBPIj9uUmTa8uMnwZkAS9gQWMhpDw2mGvfC7vsFiXX4iG3CFSKR8IcI6iUk5w1xgvmWFe6Sjve8VcW5eExlRCnynt5EL5oHplD2uFAz0XqTwQQ2cK5UTY+16rm+DTuLAehseaoSp1+kTnXbjLHZK/o5ANbykPFnGyIepKVBzEbPWWuw6wwVYkdAE0XvMpjmVtpHpuw8a/sB5Y5oMzi7Y85Zh1ZGsceu7/pzpxuPnTEnBiC+EqlZZdDdErqskDhhX0qw5zclyG/FuTnZ1lpiZUJhb0xx27jLY0+YnViZ2mpMi0fxIRISEp3KN2OP57UxWwt1jP/CHOs7rCyH1jm1J62pzAX6pkT0y/aLY2uCA0sOReeWgUdC9r4iZI7wCTfsczpCq6wzOWb8rDTluEp0tLRM8cmPBRNWfVxPtEcYpnNnVrinYPr0dKSJqhn/a5IYiWgTla0Sku1h6A35th4mtI1fu+8njnBKuinXssBQpniCIlyCyeBPz9geUVidDeHHthbijsUjjmlpOmNOdYxgjQTeK3foQiWeC+2XGJVFWw4OOTBxzvjYfNET9HKUl1y9ly7sBCtgh9mbv2APXfSWwXN/KFehOWSSsON2WaXPByrdfY3gJo6D4BiYnDMtS9nl1VzeQ7kDzPH6i5d1T42u0zB3KUxJgqH+UO4UpXHemxp43MymOsraiRUlcfKOObat62cCzi3Kr/MXPIl5lxmHSmdZmWHOee0nLl5I8qDvl/MMEHKSFkCtTFxFeIVd44CFOcSuVhBuweBncZFbtIPM9eFjhLsBkV1adNJ+G01Zx7SnqoOp+5kpkJXTFasB70I1HDxudaMIy6pB+Wy1vlZ5rj4nNWaBMcluigoiRrS8vxNNecO0wcShf71PWsp/083sKK9CKNyzLUkCPB5OeU29KeZY+WbMjSRN8zoEFn1eeKML0uzAlGWJKoMy0a0NWytx6Imqpi0jTwU9aJjB/J+SOOnmeMSwtocuAuuVyoxyGeraDSnDsf8bIPSJJ7Tb/pEHSYxLB99nrn7yUQJuBxVq2jFTzPHGc/AUOZprDvlfjXMgu/FCfLDmFgtB264w4mQNri1TSZjzkAqYcypc1B+JejHmeOykpXeOr9RA13F3J4/rabNZFXD3WWPwqpk1czfjPWPd0aH1VUl9ZhkksJ8aeY4czUomIdS2UU/zlwjfUJu0wmn4lTMRfya07mQ1Cg+UAGm6s3pusPnedYQYQytTzn9TK8K6004V4Bkb+CrHN8TZX+euYYCsxYS4R55TZeRirlGxa+v7lDcbe5hBLjFqlhA9fiUCEtJYQXSY+fM8enCASqe5ZFk1Mf82X3rPtd/njl+mRhoJYxWPBV8fUpDjT/GR75mFcy8fEwBaDGpTKQOPFeNuQ8ToEOROyYrp/SLSs7PwSl/tClKePfL3XH2DOaatSgxGHObgs1OUt9GyRxfS/ZLlriZFP4NDNrujpHsQBwHtrsAoSXvUWe/O1Pqd9nJR4CMv3cenPmweWi1Pgj2BObCphJD+OP+5jC+CQdsc0pUGwf+xNBXsodG5+KFsH1JeUCbJsu3xYCUJvOZk01LP4pt1v1FhRP+LHcWJd7hcFghIkSJcJ2u8gTmBmuhYAukBHq3w80iYgGqgjnlqPJ+iIdr0x+9UvmgW2va3IzohaW5ajYeIwsY02Bq8JE6EIjnxPnEDICx7AtDANVteAZzg7+yFBvQaCtmUxXUCmzCnfVq88rIbh7eR5TKdkoMVqDDrJAXCxFrHtw9EFxMvEOtAoCZZf8U5uoac2pYixEb5VEPF7e7fKRkr3msKo8BpImlH0mXM6jmSt8vI3PTlLOEr2TzobsZQDYU8hzmzKGuPh5cuexLWww1/nRQ57Mg7siuNCo0NOH5tCPaFJ+8X7sOX1QG9L4Teqx6FICc2/Q5zA3MQ3sroe1zb2jJrzE5rdl2sIvB5HquK3+Qm06DbVH7IakasSL3hCGgHuYGcy1V77IhAbw8CfXJHgPOZXX3i7IxcWV+LiPJmtu+S1vJNjR0By5blKdtKXFHsaB+0Zmzv5jWYwb1tTImKJ3w2ueWTx+1c2d59Sg3mRvMz6pz74Aemoq4nnrAUCrpdaMk4oCrb2UpcwiYCnDCgl5jlVwHNMu8YiOrrSkrPl8Eot3R4cS3ADGFdrrUAcjK+emSZhi4I4+qPj2JyYLZQwnMDaKhlHZgGWKyw9+KAaRO4mAKtNxTURkxq06/q78IJzl+7l6pTNsB5Alhx/bwChcDaTm06zqjG+AGFdBhhwzKAyxTHLvCPe4MCXkAWjeuIyJzA/NkC44IQIMPiRJw7fJ26LXsi+P742gVidjeWaEtkeIrvU8a2QhFC0GyABSM80XAnuAyYOtmn6uSZkBpnrcZzhc24euuAjTtUNYyL0r8cIKLMz94qUyu6AMYwWDZ2J5KmEsJOdnQqu+D1FjJC3APwmE6PdIHr1p1+whnb8GIySBdlhW4P1t6by6yuQcsS9FzZ2wDeq9bk/XOHpetZL9tpUsA5utRCTPJnI0/DYIaiwAg49TF+huTtnBrC9zoeL15GOYwDvOJ8DYpcyk2f28gK5af1cq/rtU+OXN+M6Y7ndSIPtP377jFHtvIQrZGvx8PAfauLR7BtH/DonvT5FTJ3Q27OrROLd55gRhl7h//BmdqCaILEq/bMlpm6vaR3GYBpu8rZoiKubzhoRM5fZW+Et/f+ORDZ4TCNyVcl/vF5f0OOkdyxPsfsJHtJ8zomM42JNT9y8qaoY9uJ0fcvPC+IuL5bbQx95KYB5YFl21suFy9N62TvlnJNZWEdjLM5LBAWiaSURJ3dJJNinjrv/qE+rsx95nrRwgWSnfSjI+sdkjcEepwA6ECb/Er9Q7zrnLCHRf7p35OdknwZsxVR8UhTGTfEho4V77UXoclx8pLgKji/BNEwW7dXXXsyzCCNMWgF7wZc8zqwNRY7PkaveF+1zxAgTqVFr3vL+lwvz4mghsJWBRe1g9IvXlQGkK4p4PnErwXcya3mUi1DsHDZDuPU+xPV48I66VTrfkURRXIMoCy4at5WmSqricjQXQ53w1NAHoo/abAOzNX0gfL72eJxcK7m1LmATKVfOosh3Ru7MYPZDmEk/EUVl4ZYPzDTz2+F3ODrmXqy3EPOk/57FPwsFJjZZgitUE7FwQ2w+i4GAaUdWvifko9yPFmzO0f+agH9B5ZLQHzEY3iawfBJfLdMJrFpxLzeD2bRE7o10hN3sk6Pi2SVe5o4SaWtBhzb3gz5gZdoo8lLEl92xaEqI7x5NnPYLi8GYQQimpQSkkTNL1AlvjRsYrGV8G4yrWVbF4B5jboxh2giwd3B2H9obFiPgNVuKUTWqq89gKmlpY+f/o1sPbUtV4q3lD3GhYVwvsO0tR+SkwL0KVW1Lfg1sEzVaHJ18NmSZXhx2zUIAm+Jake+dCSHBj08mWRVsT3+SX70NvLwo0XU4kTP5NwFgk+vryn8x3Tjdo+h9cN0PuJL7+PU0MIAPxWxGVwN+PEBun2wMoSQ7PsUAsRYO+2m+9Yv8ebrci3fQBIm1XUDzaJFwS7f+UY/adwnWg23y52tz+rw24xjjffD0pF3nc/4An+na9SgBv+zBx5C5jL9m/Uahdc8JaL4D+BjZiH0xmYbP9RPO4XXTAyviYyAV29zQb9P4rwCh7/RDxA9v53wT0dUQIf22MCNB39u5jOLx7A5kAlCUQKYAR/eXsdhGPQ5qthlhtJ/mVA5xdfwPFzSmS+mpo1jOiwz896/qIvmJPtbSrE3jLOAIYU2Yv5o98W/8WPwQyj02LlGYhaEGKc1ZtBFE7twyV2fpXb68N3NsfRdpkcDslyvJ9Fv6T94hcP4X/5aD7TBigEIwAAAABJRU5ErkJggg==;" vertex="1" parent="1">
          <mxGeometry x="530" y="260" width="154.74" height="40" as="geometry" />
        </mxCell>
      </root>
    </mxGraphModel>
  </diagram>
</mxfile>
